<svg xmlns="http://www.w3.org/2000/svg" xmlns:xlink="http://www.w3.org/1999/xlink" width="500" zoomAndPan="magnify" viewBox="0 0 375 374.999991" height="500" preserveAspectRatio="xMidYMid meet" version="1.0"><defs><clipPath id="232864a07f"><path d="M 113.0625 112.5 L 260 112.5 L 260 262.5 L 113.0625 262.5 Z M 113.0625 112.5 " clip-rule="nonzero"/></clipPath></defs><rect x="-37.5" width="450" fill="#ffffff" y="-37.499999" height="449.999989" fill-opacity="1"/><rect x="-37.5" width="450" fill="#ffffff" y="-37.499999" height="449.999989" fill-opacity="1"/><rect x="-37.5" width="450" fill="#000000" y="-37.499999" height="449.999989" fill-opacity="1"/><g clip-path="url(#232864a07f)"><path fill="#ffffff" d="M 150.933594 132.929688 L 141.398438 129.761719 C 142.03125 128.476562 143.519531 124.675781 142.566406 118.859375 C 146.363281 120.890625 151.414062 125.089844 150.933594 132.929688 Z M 132.101562 140.71875 C 130.804688 140.71875 129.753906 139.671875 129.753906 138.378906 C 129.753906 137.082031 130.804688 136.035156 132.101562 136.035156 C 133.398438 136.035156 134.449219 137.082031 134.449219 138.378906 C 134.449219 139.671875 133.398438 140.71875 132.101562 140.71875 Z M 257.527344 182.855469 C 253.824219 166.707031 244.121094 155.128906 238.546875 149.570312 C 237.304688 148.332031 235.644531 147.546875 233.890625 147.539062 C 231.679688 147.527344 229.660156 148.609375 228.457031 150.414062 C 226.878906 152.769531 227.035156 155.835938 228.847656 158.039062 C 241.140625 172.980469 246.132812 187.609375 243.691406 201.523438 C 240.761719 218.234375 227.710938 229.835938 221.316406 234.621094 L 221.316406 226.632812 C 221.453125 194.109375 214.570312 189.554688 200.855469 180.476562 C 199.042969 179.273438 197.167969 178.035156 195.136719 176.617188 C 179.113281 165.441406 177.179688 159.007812 174.734375 150.867188 C 173.574219 146.996094 172.253906 142.605469 169.386719 137.269531 C 164.542969 128.246094 158.484375 124.0625 153.011719 122.273438 C 149.585938 116.683594 143.605469 113.667969 139.722656 112.6875 C 138.886719 112.476562 138 112.742188 137.414062 113.375 C 136.832031 114.011719 136.644531 114.914062 136.925781 115.726562 C 137.804688 118.238281 138.132812 120.371094 138.183594 122.125 C 135.464844 122.699219 124.546875 125.667969 122.878906 136.746094 C 122.585938 138.664062 121.496094 140.457031 119.882812 141.664062 L 116.421875 144.253906 C 114.21875 145.902344 113.183594 148.6875 113.78125 151.347656 C 114.699219 155.441406 117.628906 162.519531 126.890625 164.085938 C 127.484375 164.246094 129.339844 164.675781 131.597656 164.449219 C 132.152344 164.394531 132.6875 164.605469 133.039062 165.011719 C 133.21875 165.222656 133.496094 165.660156 133.335938 166.269531 C 132.453125 169.675781 129.96875 173.527344 127.777344 176.925781 C 119.433594 189.871094 126.921875 208.113281 137.410156 219.582031 C 142.511719 225.15625 137.765625 238.601562 135.082031 244.269531 L 127.933594 247.121094 C 124.964844 248.308594 122.835938 251.082031 122.714844 254.269531 C 122.546875 258.777344 126.175781 262.5 130.660156 262.5 L 142.152344 262.5 C 145.578125 262.5 148.609375 260.320312 149.691406 257.078125 L 154.539062 242.570312 C 154.777344 241.855469 154.589844 241.101562 154.132812 240.503906 C 154.128906 240.5 154.128906 240.496094 154.125 240.492188 C 150.542969 235.765625 148.570312 230.273438 148.570312 225.027344 C 148.570312 211.9375 161.300781 197.300781 178.363281 197.21875 C 179.609375 197.210938 180.734375 198.109375 180.839844 199.347656 C 180.96875 200.738281 179.871094 201.902344 178.503906 201.902344 C 164.058594 201.902344 153.265625 214.109375 153.265625 225.027344 C 153.265625 229.261719 154.898438 233.75 157.871094 237.667969 C 157.976562 237.808594 158.0625 237.957031 158.128906 238.109375 C 160.695312 241.40625 164.148438 244.242188 168.246094 246.105469 L 161.707031 247.554688 C 158.464844 248.273438 155.925781 250.9375 155.613281 254.234375 C 155.195312 258.71875 158.730469 262.5 163.136719 262.5 L 201.386719 262.5 C 216.441406 262.5 230.421875 255.8125 239.75 244.148438 C 256.164062 223.617188 262.148438 202.996094 257.527344 182.855469 " fill-opacity="1" fill-rule="nonzero"/></g></svg>